<svg width="30" height="30" viewBox="0 0 30 30" fill="none" xmlns="http://www.w3.org/2000/svg">
<rect width="30" height="30" rx="15" fill="#1A1B22"/>
<path d="M11.1894 19.874C11.491 19.874 11.7578 19.7696 11.955 19.5607L14.9941 16.52L18.0333 19.5607C18.2305 19.7579 18.4857 19.874 18.7988 19.874C19.3904 19.874 19.8544 19.4098 19.8544 18.8179C19.8544 18.5278 19.7384 18.2725 19.5412 18.0752L16.4905 15.0229L19.5412 11.9591C19.7616 11.7386 19.866 11.5065 19.866 11.228C19.866 10.6361 19.402 10.1719 18.8104 10.1719C18.5204 10.1719 18.2769 10.2647 18.0565 10.4852L14.9941 13.5374L11.9318 10.4968C11.7346 10.2879 11.491 10.1835 11.1894 10.1835C10.5978 10.1835 10.1338 10.6361 10.1338 11.228C10.1338 11.5181 10.2498 11.7734 10.4586 11.9707L13.4977 15.0229L10.4586 18.0868C10.2498 18.2725 10.1338 18.5394 10.1338 18.8179C10.1338 19.4098 10.5978 19.874 11.1894 19.874Z" fill="white"/>
</svg>
