<svg width="30" height="29" viewBox="0 0 30 29" fill="none" xmlns="http://www.w3.org/2000/svg">
<path d="M5.19604 28.75C6.77294 28.75 10.5343 27.043 12.8867 25.3226C13.1323 25.1344 13.3391 25.0672 13.5459 25.0672C13.7139 25.0806 13.869 25.0941 14.0112 25.0941C23.3305 25.0806 30 19.7984 30 12.5403C30 5.5914 23.3175 0 14.9935 0C6.66954 0 0 5.5914 0 12.5403C0 16.8683 2.50754 20.7392 6.74709 23.1183C6.97975 23.2661 7.04438 23.4677 6.92805 23.7097C6.17837 25.0134 4.9246 26.4651 4.40758 27.1505C3.82594 27.9167 4.162 28.75 5.19604 28.75ZM15.0065 19.7312C14.3085 19.7312 13.7915 19.2204 13.7915 18.4946V11.9489L13.9207 9.08602L12.7187 10.6452L11.2193 12.2715C11.0254 12.5 10.7281 12.6344 10.405 12.6344C9.75873 12.6344 9.28048 12.1505 9.28048 11.4919C9.28048 11.1425 9.38389 10.8871 9.60362 10.6317L14.0371 5.9543C14.3473 5.63172 14.6316 5.48387 15.0065 5.48387C15.3942 5.48387 15.6915 5.64516 15.9888 5.9543L20.4093 10.6317C20.642 10.8871 20.7454 11.1425 20.7454 11.4919C20.7454 12.1505 20.2671 12.6344 19.6209 12.6344C19.2977 12.6344 19.0004 12.5 18.7936 12.2715L17.3201 10.6586L16.1051 9.07258L16.2344 11.9489V18.4946C16.2344 19.2204 15.7174 19.7312 15.0065 19.7312Z" fill="#1A1B22"/>
</svg>
